<svg width="16" height="17" viewBox="0 0 16 17" fill="none" xmlns="http://www.w3.org/2000/svg">
<g id="Layer_1" clip-path="url(#clip0_451_13058)">
<path id="Vector" d="M8.07654 0C8.12669 0.575247 8.16892 1.04455 8.20763 1.51386C8.31761 2.83906 8.40295 4.16613 8.72847 5.46067C9.02936 6.65763 9.72792 7.42617 10.8541 7.77188C12.0163 8.12781 13.2154 8.21795 14.4111 8.32854C14.9407 8.3778 15.4704 8.42333 16 8.5237C15.663 8.69655 15.3076 8.70677 14.9557 8.73186C13.9184 8.80621 12.8802 8.88985 11.857 9.08965C9.54756 9.5413 8.79798 10.3898 8.47949 12.8478C8.31673 14.1052 8.22347 15.369 8.12317 16.6329C8.11437 16.7463 8.15572 16.8838 7.95953 16.9991C7.91554 16.5521 7.86363 16.1367 7.8346 15.7194C7.75806 14.6237 7.66216 13.5309 7.4818 12.4473C7.13252 10.3414 6.31167 9.47811 4.31805 9.11103C3.00275 8.86847 1.67074 8.79506 0.34576 8.6538C0.239305 8.64265 0.108215 8.68633 0 8.4763C0.558671 8.42519 1.08567 8.37687 1.61355 8.3304C2.70802 8.23282 3.80073 8.12781 4.87496 7.86667C6.24568 7.53305 7.06829 6.65949 7.37534 5.20511C7.69823 3.67173 7.76157 2.10955 7.90762 0.556661C7.9217 0.407041 7.88123 0.24441 8.07654 0.00185863V0Z" fill="#9E4CE8"/>
</g>
<defs>
<clipPath id="clip0_451_13058">
<rect width="16" height="17" fill="white"/>
</clipPath>
</defs>
</svg>
